<?xml version="1.0"?>
<svg xmlns="http://www.w3.org/2000/svg" id="Capa_1" enable-background="new 0 0 512 512" height="512px" viewBox="0 0 512 512" width="512px" class=""><g><g><g><path d="m377 256h-362c-8.284 0-15-6.716-15-15s6.716-15 15-15h362c24.813 0 45-20.187 45-45s-20.187-45-45-45-45 20.187-45 45c0 8.284-6.716 15-15 15s-15-6.716-15-15c0-41.355 33.645-75 75-75s75 33.645 75 75-33.645 75-75 75z" data-original="#000000" class="active-path" data-old_color="#000000" fill="#C0C5C8"/></g><g><path d="m452 406c-25.387 0-48.125-16.075-56.582-40.001-2.761-7.811 1.333-16.381 9.144-19.141 7.811-2.761 16.38 1.333 19.142 9.144 4.227 11.961 15.599 19.998 28.296 19.998 16.542 0 30-13.458 30-30s-13.458-30-30-30h-197c-8.284 0-15-6.716-15-15s6.716-15 15-15h197c33.084 0 60 26.916 60 60s-26.916 60-60 60z" data-original="#000000" class="active-path" data-old_color="#000000" fill="#C0C5C8"/></g><g><path d="m317 376h-152c-8.284 0-15-6.716-15-15s6.716-15 15-15h152c8.284 0 15 6.716 15 15s-6.716 15-15 15z" data-original="#000000" class="active-path" data-old_color="#000000" fill="#C0C5C8"/></g><g><path d="m225 196h-150c-8.284 0-15-6.716-15-15s6.716-15 15-15h150c8.284 0 15 6.716 15 15s-6.716 15-15 15z" data-original="#000000" class="active-path" data-old_color="#000000" fill="#C0C5C8"/></g><g><path d="m195 316h-150c-8.284 0-15-6.716-15-15s6.716-15 15-15h150c8.284 0 15 6.716 15 15s-6.716 15-15 15z" data-original="#000000" class="active-path" data-old_color="#000000" fill="#C0C5C8"/></g><g><circle cx="105" cy="361" r="15" data-original="#000000" class="active-path" data-old_color="#000000" fill="#C0C5C8"/></g><g><circle cx="15" cy="181" r="15" data-original="#000000" class="active-path" data-old_color="#000000" fill="#C0C5C8"/></g><g><circle cx="377" cy="181" r="15" data-original="#000000" class="active-path" data-old_color="#000000" fill="#C0C5C8"/></g><g><circle cx="467" cy="241" r="15" data-original="#000000" class="active-path" data-old_color="#000000" fill="#C0C5C8"/></g><g><circle cx="497" cy="121" r="15" data-original="#000000" class="active-path" data-old_color="#000000" fill="#C0C5C8"/></g><g><circle cx="437" cy="61" r="15" data-original="#000000" class="active-path" data-old_color="#000000" fill="#C0C5C8"/></g><g><circle cx="255" cy="121" r="15" data-original="#000000" class="active-path" data-old_color="#000000" fill="#C0C5C8"/></g><g><circle cx="316" cy="421" r="15" data-original="#000000" class="active-path" data-old_color="#000000" fill="#C0C5C8"/></g><g><circle cx="406" cy="451" r="15" data-original="#000000" class="active-path" data-old_color="#000000" fill="#C0C5C8"/></g></g></g> </svg>
